<svg xmlns="http://www.w3.org/2000/svg" xmlns:xlink="http://www.w3.org/1999/xlink" width="267" zoomAndPan="magnify" viewBox="0 0 200.25 200.250001" height="267" preserveAspectRatio="xMidYMid meet" version="1.0"><path fill="#ffffff" d="M 109.125 101.390625 L 80.964844 73.09375 C 80.382812 72.507812 79.589844 72.179688 78.761719 72.175781 C 77.933594 72.175781 77.140625 72.5 76.554688 73.085938 L 10.394531 139.246094 C 9.808594 139.828125 9.484375 140.621094 9.484375 141.445312 C 9.484375 142.269531 9.808594 143.0625 10.394531 143.648438 L 25.808594 159.058594 C 27.023438 160.273438 28.992188 160.273438 30.210938 159.058594 L 78.683594 110.589844 C 78.683594 110.589844 106.917969 138.820312 106.917969 138.820312 C 108.128906 140.039062 110.105469 140.039062 111.320312 138.820312 L 165.683594 84.460938 C 165.683594 84.460938 175.589844 94.367188 175.589844 94.367188 C 176.410156 95.1875 177.613281 95.484375 178.722656 95.140625 C 179.828125 94.792969 180.648438 93.863281 180.855469 92.722656 L 189.664062 44.289062 C 189.84375 43.285156 189.523438 42.253906 188.800781 41.53125 C 188.078125 40.808594 187.046875 40.484375 186.042969 40.667969 L 137.605469 49.476562 C 136.46875 49.683594 135.535156 50.503906 135.191406 51.609375 C 134.84375 52.714844 135.140625 53.921875 135.960938 54.742188 L 145.867188 64.644531 Z M 109.125 101.390625 " fill-opacity="1" fill-rule="evenodd"/></svg>