<svg id="Layer_1" enable-background="new 0 0 24 24" height="300" viewBox="0 0 24 24" width="300" xmlns="http://www.w3.org/2000/svg" version="1.1" xmlns:xlink="http://www.w3.org/1999/xlink" xmlns:svgjs="http://svgjs.dev/svgjs"><g width="100%" height="100%" transform="matrix(1,0,0,1,0,0)"><path d="m23.415 20.585-5.074-5.073c1.047-1.581 1.659-3.474 1.659-5.512 0-5.524-4.476-10-10-10-5.523 0-10 4.476-10 10 0 5.523 4.477 10 10 10 2.038 0 3.932-.612 5.512-1.659l5.074 5.073c.78.78 2.047.78 2.829-.001.78-.781.78-2.048 0-2.828zm-13.415-3.585c-3.86 0-7-3.141-7-7 0-3.86 3.14-7 7-7 3.859 0 7 3.14 7 7 0 3.859-3.141 7-7 7z" fill="#ffffff" fill-opacity="1" data-original-color="#000000ff" stroke="none" stroke-opacity="1"/></g></svg>