<svg clip-rule="evenodd" fill-rule="evenodd" stroke-linejoin="round" stroke-miterlimit="2" viewBox="0 0 64 64" xmlns="http://www.w3.org/2000/svg" width="300" height="300" version="1.1" xmlns:xlink="http://www.w3.org/1999/xlink" xmlns:svgjs="http://svgjs.dev/svgjs"><g width="100%" height="100%" transform="matrix(1,0,0,1,0,0)"><g transform="translate(-1768 -8)"><g transform="matrix(.714 0 0 1 1714.29 0)"><path d="m136.8 8h-44.8c-3.093 0-5.6 1.791-5.6 4v56c0 1.327.922 2.568 2.46 3.312 1.539.744 3.494.895 5.22.402l25.92-7.406s25.92 7.406 25.92 7.406c1.726.493 3.681.342 5.22-.402 1.538-.744 2.46-1.985 2.46-3.312 0 0 0-32.525 0-48 0-6.627-7.522-12-16.8-12zm0 8c3.093 0 5.6 1.791 5.6 4v42.092s-20.32-5.806-20.32-5.806c-1.335-.381-2.825-.381-4.16 0l-20.32 5.806v-46.092z" fill="#ffffff" fill-opacity="1" data-original-color="#000000ff" stroke="none" stroke-opacity="1"/></g></g></g></svg>
