<svg version="1.1" id="Layer_1" xmlns="http://www.w3.org/2000/svg" xmlns:xlink="http://www.w3.org/1999/xlink" x="0px" y="0px" viewBox="0 0 512 512" style="enable-background:new 0 0 512 512;" xml:space="preserve" width="300" height="300" xmlns:svgjs="http://svgjs.dev/svgjs"><g width="100%" height="100%" transform="matrix(1,0,0,-1,0,512)"><g>
	<g>
		<path d="M116.364,0H23.273C10.42,0,0,10.42,0,23.273v93.091c0,12.853,10.42,23.273,23.273,23.273h93.091&#10;&#9;&#9;&#9;c12.853,0,23.273-10.42,23.273-23.273V23.273C139.636,10.42,129.216,0,116.364,0z M93.091,93.091H46.545V46.545h46.545V93.091z" fill="#ffffff" fill-opacity="1" data-original-color="#000000ff" stroke="none" stroke-opacity="1"/>
	</g>
</g><g>
	<g>
		<path d="M116.364,186.182H23.273C10.42,186.182,0,196.602,0,209.455v93.091c0,12.853,10.42,23.273,23.273,23.273h93.091&#10;&#9;&#9;&#9;c12.853,0,23.273-10.42,23.273-23.273v-93.091C139.636,196.602,129.216,186.182,116.364,186.182z M93.091,279.273H46.545v-46.545&#10;&#9;&#9;&#9;h46.545V279.273z" fill="#ffffff" fill-opacity="1" data-original-color="#000000ff" stroke="none" stroke-opacity="1"/>
	</g>
</g><g>
	<g>
		<path d="M116.364,372.364H23.273C10.42,372.364,0,382.784,0,395.636v93.091C0,501.58,10.42,512,23.273,512h93.091&#10;&#9;&#9;&#9;c12.853,0,23.273-10.42,23.273-23.273v-93.091C139.636,382.784,129.216,372.364,116.364,372.364z" fill="#ffffff" fill-opacity="1" data-original-color="#000000ff" stroke="none" stroke-opacity="1"/>
	</g>
</g><g>
	<g>
		<path d="M488.727,46.545H209.455c-12.853,0-23.273,10.42-23.273,23.273c0,12.853,10.42,23.273,23.273,23.273h279.273&#10;&#9;&#9;&#9;c12.853,0,23.273-10.42,23.273-23.273C512,56.965,501.58,46.545,488.727,46.545z" fill="#ffffff" fill-opacity="1" data-original-color="#000000ff" stroke="none" stroke-opacity="1"/>
	</g>
</g><g>
	<g>
		<path d="M488.727,418.909H209.455c-12.853,0-23.273,10.42-23.273,23.273s10.42,23.273,23.273,23.273h279.273&#10;&#9;&#9;&#9;c12.853,0,23.273-10.42,23.273-23.273S501.58,418.909,488.727,418.909z" fill="#ffffff" fill-opacity="1" data-original-color="#000000ff" stroke="none" stroke-opacity="1"/>
	</g>
</g><g>
	<g>
		<path d="M488.727,232.727H209.455c-12.853,0-23.273,10.42-23.273,23.273c0,12.853,10.42,23.273,23.273,23.273h279.273&#10;&#9;&#9;&#9;C501.58,279.273,512,268.853,512,256C512,243.147,501.58,232.727,488.727,232.727z" fill="#ffffff" fill-opacity="1" data-original-color="#000000ff" stroke="none" stroke-opacity="1"/>
	</g>
</g><g>
</g><g>
</g><g>
</g><g>
</g><g>
</g><g>
</g><g>
</g><g>
</g><g>
</g><g>
</g><g>
</g><g>
</g><g>
</g><g>
</g><g>
</g></g></svg>