<svg version="1.1" id="svg639" xml:space="preserve" width="300" height="300" viewBox="0 0 682.66669 682.66669" xmlns="http://www.w3.org/2000/svg" xmlns:svg="http://www.w3.org/2000/svg" xmlns:xlink="http://www.w3.org/1999/xlink" xmlns:svgjs="http://svgjs.dev/svgjs"><g width="100%" height="100%" transform="matrix(1,0,0,1,0,0)"><defs id="defs643"><clipPath clipPathUnits="userSpaceOnUse" id="clipPath653"><path d="M 0,512 H 512 V 0 H 0 Z" id="path651" fill="#ffffff" fill-opacity="1" data-original-color="#000000ff" stroke="none" stroke-opacity="1"/></clipPath></defs><g id="g645" transform="matrix(1.3333333,0,0,-1.3333333,0,682.66667)"><g id="g647"><g id="g649" clip-path="url(#clipPath653)"><g id="g655" transform="translate(256,256)"><path d="m 0,0 v 147.941 c 0,18.377 -17.527,33.251 -35.563,29.73 -24.091,-4.703 -46.478,-14.227 -66.111,-27.522 -15.129,-10.243 -16.156,-32.319 -3.237,-45.238" style="stroke-linecap: round; stroke-linejoin: round; stroke-miterlimit: 10; stroke-dasharray: none;" id="path657" fill="none" fill-opacity="1" stroke="#ffffff" stroke-opacity="1" data-original-stroke-color="#000000ff" stroke-width="30" data-original-stroke-width="30"/></g><g id="g659" transform="translate(433.6709,290.5635)"><path d="m 0,0 c -4.703,24.091 -14.227,47.477 -27.521,67.111 -10.245,15.128 -32.32,16.156 -45.239,3.237 L -177.671,-34.563 H -29.729 C -11.353,-34.563 3.521,-18.037 0,0 Z" style="stroke-linecap: round; stroke-linejoin: round; stroke-miterlimit: 10; stroke-dasharray: none;" id="path661" fill="none" fill-opacity="1" stroke="#ffffff" stroke-opacity="1" data-original-stroke-color="#000000ff" stroke-width="30" data-original-stroke-width="30"/></g><g id="g663" transform="translate(105.8506,357.6746)"><path d="m 0,0 c -13.294,-19.634 -22.818,-43.021 -27.521,-67.111 -3.522,-18.037 11.352,-34.564 29.729,-34.564 H 150.149 L 45.238,3.237 C 32.319,16.156 10.244,15.128 0,0 Z" style="stroke-linecap: round; stroke-linejoin: round; stroke-miterlimit: 10; stroke-dasharray: none;" id="path665" fill="none" fill-opacity="1" stroke="#ffffff" stroke-opacity="1" data-original-stroke-color="#000000ff" stroke-width="30" data-original-stroke-width="30"/></g><g id="g667" transform="translate(360.9111,360.9111)"><path d="M 0,0 C 12.919,12.919 11.892,34.994 -3.236,45.238 -22.871,58.533 -46.257,68.056 -70.348,72.76 -88.384,76.281 -104.911,61.407 -104.911,43.03" style="stroke-linecap: round; stroke-linejoin: round; stroke-miterlimit: 10; stroke-dasharray: none;" id="path669" fill="none" fill-opacity="1" stroke="#ffffff" stroke-opacity="1" data-original-stroke-color="#000000ff" stroke-width="30" data-original-stroke-width="30"/></g><g id="g671" transform="translate(256,108.0588)"><path d="m 0,0 c 0,-18.377 16.527,-33.251 34.563,-29.729 24.091,4.703 47.477,14.226 67.112,27.521 15.128,10.244 16.155,32.319 3.236,45.238" style="stroke-linecap: round; stroke-linejoin: round; stroke-miterlimit: 10; stroke-dasharray: none;" id="path673" fill="none" fill-opacity="1" stroke="#ffffff" stroke-opacity="1" data-original-stroke-color="#000000ff" stroke-width="30" data-original-stroke-width="30"/></g><g id="g675" transform="translate(108.0586,256)"><path d="m 0,0 c -18.377,0 -33.251,-16.527 -29.729,-34.563 4.703,-24.091 14.227,-47.477 27.521,-67.111 10.244,-15.128 32.319,-16.156 45.238,-3.237" style="stroke-linecap: round; stroke-linejoin: round; stroke-miterlimit: 10; stroke-dasharray: none;" id="path677" fill="none" fill-opacity="1" stroke="#ffffff" stroke-opacity="1" data-original-stroke-color="#000000ff" stroke-width="30" data-original-stroke-width="30"/></g><g id="g679" transform="translate(256,256)"><path d="m 0,0 104.911,-104.911 c 12.919,-12.919 34.994,-11.891 45.238,3.237 13.295,19.634 22.819,43.02 27.522,67.111 C 181.192,-16.527 166.318,0 147.941,0" style="stroke-linecap: round; stroke-linejoin: round; stroke-miterlimit: 10; stroke-dasharray: none;" id="path681" fill="none" fill-opacity="1" stroke="#ffffff" stroke-opacity="1" data-original-stroke-color="#000000ff" stroke-width="30" data-original-stroke-width="30"/></g><g id="g683" transform="translate(154.3257,105.8508)"><path d="m 0,0 c 19.634,-13.295 42.021,-22.818 66.111,-27.521 18.036,-3.522 35.563,11.352 35.563,29.729 V 150.149 L -3.237,45.238 C -16.156,32.319 -15.128,10.244 0,0 Z" style="stroke-linecap: round; stroke-linejoin: round; stroke-miterlimit: 10; stroke-dasharray: none;" id="path685" fill="none" fill-opacity="1" stroke="#ffffff" stroke-opacity="1" data-original-stroke-color="#000000ff" stroke-width="30" data-original-stroke-width="30"/></g><g id="g687" transform="translate(497,256)"><path d="m 0,0 c 0,-132.548 -108.451,-241 -241,-241 -132.548,0 -241,108.452 -241,241 0,132.548 108.452,241 241,241 C -108.451,241 0,132.548 0,0 Z" style="stroke-linecap: round; stroke-linejoin: round; stroke-miterlimit: 10; stroke-dasharray: none;" id="path689" fill="none" fill-opacity="1" stroke="#ffffff" stroke-opacity="1" data-original-stroke-color="#000000ff" stroke-width="30" data-original-stroke-width="30"/></g></g></g></g></g></svg>
