<svg xmlns="http://www.w3.org/2000/svg" xmlns:xlink="http://www.w3.org/1999/xlink" width="267" zoomAndPan="magnify" viewBox="0 0 200.25 200.250001" height="267" preserveAspectRatio="xMidYMid meet" version="1.0"><defs><clipPath id="e7c7534dd3"><path d="M 0.324219 2 L 181 2 L 181 122 L 0.324219 122 Z M 0.324219 2 " clip-rule="nonzero"/></clipPath><clipPath id="4dea4b4455"><rect x="0" width="182" y="0" height="126"/></clipPath></defs><g transform="matrix(1, 0, 0, 1, 9, 37)"><g clip-path="url(#4dea4b4455)"><g clip-path="url(#e7c7534dd3)"><path fill="#ffffff" d="M 100.125 61.113281 L 71.964844 89.410156 C 71.382812 89.996094 70.589844 90.324219 69.761719 90.328125 C 68.933594 90.328125 68.140625 90 67.554688 89.414062 L 1.394531 23.257812 C 0.808594 22.675781 0.484375 21.882812 0.484375 21.058594 C 0.484375 20.230469 0.808594 19.441406 1.394531 18.855469 L 16.808594 3.445312 C 18.023438 2.230469 19.992188 2.230469 21.210938 3.445312 L 69.683594 51.914062 C 69.683594 51.914062 97.917969 23.683594 97.917969 23.683594 C 99.128906 22.464844 101.105469 22.464844 102.320312 23.683594 L 156.683594 78.042969 C 156.683594 78.042969 166.589844 68.132812 166.589844 68.132812 C 167.410156 67.316406 168.613281 67.015625 169.722656 67.363281 C 170.828125 67.707031 171.648438 68.640625 171.855469 69.777344 L 180.664062 118.214844 C 180.84375 119.21875 180.523438 120.25 179.800781 120.972656 C 179.078125 121.695312 178.046875 122.019531 177.042969 121.835938 L 128.605469 113.027344 C 127.46875 112.820312 126.535156 112 126.191406 110.894531 C 125.84375 109.789062 126.140625 108.578125 126.960938 107.761719 L 136.867188 97.855469 Z M 100.125 61.113281 " fill-opacity="1" fill-rule="evenodd"/></g></g></g></svg>